PathFileType	4	(X/Y/Z)	C:/Users/opensim2020/Desktop/walking_exp_matlab/subject02_walking11_straight_02.trc	
DataRate	CameraRate	NumFrames	NumMarkers	Units	OrigDataRate	OrigDataStartFrame	OrigNumFrames	
100.00	100.00	6	42	mm	100.00	1691	230	
Frame#	Time	LFHD			RFHD			LBHD			RBHD			C7			T10			CLAV			STRN			RBAK			LSHO			LUPA			LELB			LFRM			LWRA			LWRB			LFIN			RSHO			RUPA			RELB			RFRM			RWRA			RWRB			RFIN			LASI			RASI			LPSI			RPSI			LTHI			LKNE			LTIB			LANK			LHEE			LTOE			RTHI			RKNE			RTIB			RANK			RHEE			RTOE			*39			*40			*41			
		X1	Y1	Z1	X2	Y2	Z2	X3	Y3	Z3	X4	Y4	Z4	X5	Y5	Z5	X6	Y6	Z6	X7	Y7	Z7	X8	Y8	Z8	X9	Y9	Z9	X10	Y10	Z10	X11	Y11	Z11	X12	Y12	Z12	X13	Y13	Z13	X14	Y14	Z14	X15	Y15	Z15	X16	Y16	Z16	X17	Y17	Z17	X18	Y18	Z18	X19	Y19	Z19	X20	Y20	Z20	X21	Y21	Z21	X22	Y22	Z22	X23	Y23	Z23	X24	Y24	Z24	X25	Y25	Z25	X26	Y26	Z26	X27	Y27	Z27	X28	Y28	Z28	X29	Y29	Z29	X30	Y30	Z30	X31	Y31	Z31	X32	Y32	Z32	X33	Y33	Z33	X34	Y34	Z34	X35	Y35	Z35	X36	Y36	Z36	X37	Y37	Z37	X38	Y38	Z38	X39	Y39	Z39	X40	Y40	Z40	X41	Y41	Z41	X42	Y42	Z42	

58	0.570	-1009.96576	457.15872	1735.55469	-1149.21204	477.98358	1701.92175	-974.45636	579.37402	1653.25598	-1110.22546	610.81439	1617.41675	-1031.13171	635.74640	1509.46899	-1029.50732	688.62231	1234.14587	-1025.81506	496.00531	1440.20911	-1031.73071	445.28955	1267.74744	-1083.00537	697.70453	1334.07043	-854.46570	553.26208	1491.93396	-763.11499	535.66296	1295.78931	-744.71948	504.72980	1156.02051	-744.40936	446.41522	1035.15088	-795.46301	355.99902	942.98157	-755.56024	392.15335	925.77112	-758.00818	347.34387	877.90076	-1221.01208	571.13940	1463.27478	-1291.36206	624.13159	1273.00037	-1306.32117	626.39423	1127.74988	-1331.97961	611.39258	1009.90125	-1326.26746	568.62537	880.02026	-1345.73926	621.87219	880.75629	-1357.82227	590.69220	815.84625	-899.84149	457.01376	963.29926	-1156.41772	444.31052	970.17615	-992.08850	661.82880	1012.52386	-1107.31030	663.60919	1018.97113	-851.27411	586.68170	667.01282	-874.72296	665.10974	481.71817	-870.21448	795.56641	336.01907	-891.95459	886.02368	127.64533	-943.05237	927.36444	114.10766	-881.70673	753.72894	37.11493	-1243.42078	459.57126	676.00928	-1206.35693	403.61047	473.97464	-1218.19775	414.21576	285.59430	-1186.37109	410.11832	93.09539	-1129.75977	439.21945	40.32358	-1206.04102	256.45767	41.50773	-1089.38354	576.27740	1784.46875	-3357.05981	2845.75903	1034.24646			 
59	0.580	-1014.35779	450.22134	1735.99829	-1153.38049	470.18793	1702.02832	-978.48303	571.75427	1654.32776	-1113.99719	602.97607	1617.72791	-1034.34351	627.93262	1509.96655	-1032.35803	679.93176	1234.37402	-1028.79492	487.93182	1441.12134	-1034.66077	436.58252	1268.91821	-1086.26953	689.17542	1334.28662	-857.51282	545.42664	1492.77478	-766.64008	529.90015	1295.89124	-748.47266	500.76019	1155.95117	-747.34821	444.78595	1034.00159	-797.25409	355.88022	939.56793	-757.42517	392.74554	923.59973	-759.47156	348.79208	874.58771	-1224.07031	562.73541	1463.92822	-1294.28345	614.34753	1273.19727	-1309.27893	616.20831	1128.17554	-1334.88232	601.61670	1010.29858	-1329.17542	559.53491	880.23370	-1348.72791	612.75659	881.21405	-1360.72375	581.95367	816.10059	-904.13470	446.87112	963.76404	-1160.08020	434.57196	972.02777	-994.65424	651.79688	1013.01923	-1110.35315	654.37946	1019.80438	-854.24792	576.29272	667.40771	-876.03833	653.43225	482.55911	-871.59454	786.97626	339.72656	-892.35309	881.91644	133.22092	-944.26001	922.75055	121.14155	-881.57513	753.48798	37.12766	-1246.10852	448.11386	676.65625	-1208.03137	395.51019	473.88235	-1219.13599	409.45749	285.66235	-1186.34424	408.97144	93.06816	-1129.58582	438.95285	40.33053	-1206.21680	255.74599	40.77494	-1094.16626	568.59827	1784.82886	-3360.25708	2845.17920	1034.27661			 
60	0.590	-1018.82263	441.94910	1737.43396	-1157.47803	462.35242	1702.26550	-982.40039	564.14734	1655.50769	-1117.77332	595.15350	1618.15308	-1037.39929	620.16754	1510.52258	-1035.44653	671.39984	1234.81348	-1031.63831	479.95331	1442.20288	-1037.62158	427.91559	1270.17957	-1089.49597	680.74890	1334.75952	-860.63611	537.56104	1493.66809	-770.20441	524.22455	1296.40515	-752.36627	496.75061	1156.17737	-750.34076	443.44879	1033.05859	-798.85468	356.14639	936.72711	-759.56744	393.97202	921.54962	-760.80060	350.90823	871.64606	-1227.36975	554.49243	1465.03040	-1298.00793	604.64685	1273.91919	-1312.18579	605.78827	1128.86389	-1337.83765	591.55017	1011.10736	-1332.03259	550.14679	880.71295	-1351.91406	603.28265	882.06073	-1363.67908	572.88641	816.64386	-908.55182	437.09720	964.49878	-1163.84839	424.88110	973.95782	-997.37903	642.19611	1013.59192	-1113.35913	645.16656	1020.30731	-856.95728	565.56299	667.84259	-877.06042	640.88708	483.31219	-873.06061	777.70996	343.68063	-892.84546	877.05756	139.26912	-945.34637	917.08942	128.46211	-881.44904	753.19232	37.23544	-1248.72754	437.21017	676.95087	-1209.58435	388.70563	473.45267	-1219.41748	406.68991	285.39310	-1185.87854	408.41812	93.05979	-1129.37305	438.88126	40.36433	-1205.77917	254.94138	40.20810	-1099.25598	560.81927	1785.33655						 
61	0.600	-1022.91302	434.86719	1738.37585	-1161.59399	454.47916	1702.61511	-986.18420	556.54388	1656.90869	-1121.60938	587.35364	1618.82080	-1040.39941	612.58020	1511.17102	-1038.82043	662.87927	1235.45105	-1034.65601	471.94168	1443.52905	-1040.62817	419.38412	1271.65039	-1092.60791	672.29010	1335.33069	-863.58630	530.13837	1494.97913	-773.77240	518.51514	1296.94653	-756.30347	492.91983	1156.66260	-753.46069	442.48672	1032.47510	-800.63409	357.08136	933.64203	-761.64093	395.70041	919.53729	-762.11719	353.80200	868.84515	-1229.63354	546.47382	1465.94092	-1301.24097	594.92291	1274.70752	-1315.17542	595.38831	1129.89038	-1340.94177	581.22485	1012.17505	-1334.93799	540.44348	881.48981	-1355.11328	593.37622	883.11462	-1366.70911	563.45374	817.43640	-912.99152	427.47672	965.50867	-1167.74133	415.43228	975.90686	-1000.25293	632.88757	1014.22919	-1116.42285	636.00433	1020.61981	-859.67249	554.39288	668.04730	-877.87756	627.58966	483.87448	-874.63287	767.52234	347.82788	-893.48285	871.16754	145.56058	-946.73145	910.45410	136.25984	-881.41010	752.78790	37.44128	-1251.34229	427.54095	677.18628	-1211.24585	383.37283	472.83188	-1219.52808	405.05670	284.87292	-1185.56836	407.89423	93.01093	-1129.11108	438.79523	40.41054	-1205.74194	254.51524	39.85806	-1103.76746	553.13940	1785.98145						 
62	0.610	-1027.25403	426.92584	1739.64270	-1165.28931	446.76102	1703.26208	-989.91577	548.89813	1658.35938	-1125.13916	579.57147	1619.56641	-1043.30017	604.88647	1511.97864	-1042.27722	654.31622	1236.12488	-1037.46777	463.99991	1444.95850	-1043.57214	410.92908	1273.13391	-1095.52356	663.72656	1335.86340	-866.55042	522.71277	1496.24878	-777.43915	512.45270	1297.90918	-760.37177	489.15826	1157.30676	-756.70081	441.82358	1031.82800	-802.23444	358.08276	931.00061	-763.92963	397.30762	918.18829	-763.39972	356.97772	866.18481	-1232.97058	538.60059	1467.57385	-1304.00598	585.12982	1275.55920	-1317.94592	584.66943	1130.80994	-1343.68494	570.70953	1013.31744	-1337.92212	530.37543	882.46661	-1358.42114	583.25476	884.43781	-1369.73120	553.65564	818.46027	-917.36108	418.28534	966.66119	-1171.51428	406.26587	977.51202	-1003.34741	623.97650	1015.11414	-1119.59656	626.98340	1021.02502	-862.09326	543.17047	668.21942	-878.56873	613.41357	484.20609	-876.06763	756.02234	351.84784	-894.38837	864.31219	152.03914	-948.23181	902.61792	144.05611	-881.62531	752.01129	37.76142	-1254.08655	419.43277	677.64978	-1212.94067	379.10684	472.15796	-1219.82959	403.78983	284.49039	-1185.34570	407.72693	93.01277	-1128.96533	438.77798	40.44311	-1205.73096	254.26071	39.62029	-1108.23706	545.45203	1786.85950						 
63	0.620	-1031.18225	419.05487	1741.07483	-1169.03699	438.93549	1703.87073	-993.49237	541.24634	1659.95349	-1128.21155	571.77551	1620.30249	-1046.26086	597.17755	1512.98767	-1045.76733	645.72473	1236.91479	-1040.28992	456.18741	1446.44556	-1046.40381	402.56253	1274.71997	-1098.64392	655.37195	1336.63855	-869.44946	515.36725	1497.58643	-780.88446	506.57312	1299.03662	-764.61658	485.43320	1158.06787	-759.99792	441.59317	1031.79309	-803.74951	359.63263	928.44086	-765.95599	399.51660	917.03992	-764.79102	360.75488	864.02881	-1235.83997	530.68384	1469.19409	-1307.49988	575.53149	1276.78955	-1320.85522	574.08173	1132.09583	-1346.77539	560.05182	1014.73035	-1340.82202	519.94427	883.74286	-1361.62231	572.74054	885.91608	-1372.98364	543.42114	819.71967	-921.94476	409.91928	967.94519	-1175.16174	397.37613	978.94672	-1006.59467	615.37250	1016.29346	-1122.95032	618.06555	1021.63391	-864.37830	531.61572	668.22906	-879.31775	598.48578	484.27963	-877.37463	743.34174	355.50235	-895.43481	856.54724	158.58437	-950.15088	893.70819	152.17738	-882.03632	751.28351	38.09004	-1256.41199	412.74542	678.28723	-1214.52515	375.38806	471.76743	-1220.55701	402.40918	284.25284	-1185.20374	407.52817	93.03094	-1128.85327	438.72571	40.46180	-1205.68555	254.04092	39.46638	-1112.58484	537.80060	1787.87415						 
